<?xml version="1.0" encoding="UTF-8"?>
<!DOCTYPE svg PUBLIC "-//W3C//DTD SVG 1.1//EN" "http://www.w3.org/Graphics/SVG/1.1/DTD/svg11.dtd">
<!-- Creator: CorelDRAW X8 -->
<svg xmlns="http://www.w3.org/2000/svg" xml:space="preserve" width="19.6197in" height="5.5625in" version="1.1" style="shape-rendering:geometricPrecision; text-rendering:geometricPrecision; image-rendering:optimizeQuality; fill-rule:evenodd; clip-rule:evenodd"
viewBox="0 0 9300 2637"
 xmlns:xlink="http://www.w3.org/1999/xlink">
 <defs>
  <style type="text/css">
   <![CDATA[
    .str0 {stroke:white;stroke-width:9.86841;stroke-linecap:round;stroke-linejoin:round}
    .fil0 {fill:none}
    .fil1 {fill:black}
    .fil2 {fill:yellow}
    .fil3 {fill:white;fill-rule:nonzero}
   ]]>
  </style>
 </defs>
 <g id="Layer_x0020_1">
  <metadata id="CorelCorpID_0Corel-Layer"/>
  <g id="_2250418130288">
   <path class="fil0 str0" d="M8822 404l116 -83c25,-24 58,-24 91,-16 25,8 50,33 58,66 8,17 25,74 33,91 8,0 17,8 25,8 33,8 58,25 83,42 41,16 58,66 41,107l-25 91c0,17 -8,33 -25,41 9,9 17,9 17,17 33,41 66,74 58,124 -9,50 -42,74 -66,116 -33,41 -67,132 -100,223 0,0 0,0 0,0 50,-17 100,0 124,41 100,190 -248,472 -421,372 -17,-8 -33,-16 -42,-33 -8,-16 -16,-33 -16,-49 -75,-199 124,-447 91,-554 -9,-42 0,-83 33,-108l173 -124c-140,0 -215,-41 -281,-174 -41,141 -107,273 -231,340 -17,8 -58,33 -66,49 -17,17 -33,99 -33,124 -25,83 -34,141 -25,207 58,-25 107,-75 149,-108 16,-16 41,-24 74,-16 25,0 50,16 66,33 25,41 33,83 25,132 -17,83 -91,124 -157,174 -91,74 -166,149 -298,149 -33,0 -66,-17 -82,-50 -9,8 -17,8 -17,17 -83,66 -207,124 -306,66 -17,-8 -25,-25 -33,-41 -33,-75 -25,-174 -8,-273 -42,49 -75,91 -108,132 -91,124 -91,124 -240,124 -24,0 -49,-17 -74,-33 -17,-17 -25,-41 -25,-75 8,-206 124,-430 265,-587 91,-91 198,-173 322,-215 83,-24 223,-41 257,75 8,8 8,25 8,41 0,0 0,0 0,0 0,0 0,0 0,0 16,-41 33,-91 58,-132 74,-166 215,-529 430,-529 49,8 91,49 91,99 0,33 0,66 -9,99l0 0zm-6623 1075c-50,74 -133,132 -215,165 -240,100 -430,-8 -447,-239 -25,33 -58,66 -91,99 -264,231 -653,273 -984,248 -173,-17 -430,-66 -455,-273 -16,-107 50,-215 125,-289 57,-58 132,-116 215,-133 24,-8 57,-8 82,17 25,16 33,41 33,66l9 74c0,33 -9,67 -34,83 -16,8 -82,75 -74,91 0,25 91,58 116,58 99,25 215,25 322,16 116,-16 356,-74 389,-215 -58,-33 -165,-41 -215,-49 -132,-25 -323,-41 -405,-166 -124,-181 82,-438 190,-578 91,-100 331,-348 447,-389 215,-74 330,99 297,298 -33,182 -107,256 -297,264 -42,0 -75,-25 -91,-58l-17 -49c-74,49 -141,140 -182,198 -8,17 -33,58 -25,75 17,24 149,41 182,49 133,17 414,50 505,141 24,33 41,58 49,91 25,-33 42,-75 66,-99 75,-108 215,-265 364,-240 42,8 83,25 108,58 16,16 25,24 33,49 25,149 -42,257 -133,372 -24,42 -66,75 -107,108 0,0 0,0 0,0 74,-25 149,-50 223,-8 9,8 17,8 25,16 25,-107 91,-223 66,-314 -8,-33 0,-58 25,-83 50,-66 157,-165 248,-182 41,-8 91,17 108,58 8,25 16,58 16,91 66,-74 141,-140 240,-149 50,-8 99,25 99,83 8,58 0,124 -16,190 74,-99 173,-190 314,-182 41,0 83,33 91,83 16,99 -17,240 -50,364 33,-9 75,0 99,25l25 24c116,-330 439,-711 753,-570 33,16 49,41 58,74 0,9 0,17 0,25 16,17 24,50 16,74 0,91 -49,199 -74,290 -8,25 -25,66 -33,116 8,-9 25,-9 33,-9 8,-57 25,-107 41,-148 17,-67 33,-124 50,-182 0,-9 8,-25 8,-42 -17,-33 -25,-66 -25,-107 0,-42 17,-75 58,-91 8,-8 50,-25 66,-33 0,-8 9,-25 9,-25 8,-33 24,-58 33,-83 57,-99 107,-190 239,-198 25,-8 58,0 83,25 17,24 25,58 17,91 -9,41 -75,140 -83,182 25,16 91,16 116,16 25,0 49,8 66,25 25,25 33,41 33,74l0 91c0,50 -33,83 -83,91 -49,9 -198,25 -256,42 -25,49 -50,157 -66,248 0,0 0,0 0,-9 58,-33 107,-74 173,-91 42,-16 91,9 108,42l33 58c25,41 8,91 -25,124 -132,99 -298,248 -471,248 -25,0 -50,-9 -66,-33 -9,-9 -25,-25 -25,-33 -25,16 -50,33 -66,49 -75,50 -182,99 -265,58 -25,-8 -33,-25 -50,-41 -33,-75 -33,-166 -16,-265 -58,75 -124,157 -190,215 -17,8 -33,17 -58,17l-91 8c-25,0 -50,-8 -75,-33 -16,-17 -24,-41 -24,-66 0,-17 0,-25 0,-33 -83,74 -215,149 -306,157 -42,0 -83,-25 -100,-58 -24,-58 -8,-165 9,-248 -17,16 -33,33 -42,41 -66,75 -165,182 -256,223 -33,17 -74,9 -107,-16l-58 -58c-17,-25 -25,-50 -25,-74 0,-25 0,-50 0,-67l-124 149c-33,33 -91,42 -133,17 -33,-25 -57,-58 -74,-99 0,-9 -8,-9 -8,-17l0 0zm4581 -1406c190,-8 496,-8 604,141 16,25 24,49 16,74 -41,190 -281,339 -438,430 -41,25 -157,91 -265,149 99,8 190,0 281,8 83,9 166,25 248,58 91,33 174,91 191,190 33,273 -546,497 -745,571 -198,66 -777,240 -926,8 -16,-16 -16,-49 -8,-74 41,-141 289,-381 438,-397l17 -99c-25,-17 -42,-33 -66,-75 -17,-33 -17,-66 0,-99 24,-50 58,-74 99,-107 8,-91 33,-191 58,-282 8,-49 25,-91 41,-132 -8,0 -16,0 -25,0 -107,17 -231,25 -322,-50 -25,-16 -33,-41 -33,-66 -9,-107 49,-173 116,-240 33,-24 66,-33 99,-24 82,24 215,58 306,41 49,-17 82,-41 124,-66 25,-17 58,-25 82,-25 42,-8 75,8 91,41l17 25 0 0zm-339 1381c74,-16 140,-33 190,-49 132,-33 265,-83 389,-149 25,-17 91,-50 132,-91 -66,-25 -190,-33 -231,-33 -91,0 -191,0 -290,16 -41,0 -74,9 -107,17l-42 8c-8,41 -16,108 -25,141 -8,41 -8,82 -16,132 0,0 0,0 0,8l0 0zm273 -1075c-33,75 -75,174 -108,257 141,-67 323,-174 422,-257 -91,-8 -223,0 -314,0z"/>
   <path id="_1" class="fil1" d="M8822 404l116 -83c25,-24 58,-24 91,-16 25,8 50,33 58,66 8,17 25,74 33,91 8,0 17,8 25,8 33,8 58,25 83,42 41,16 58,66 41,107l-25 91c0,17 -8,33 -25,41 9,9 17,9 17,17 33,41 66,74 58,124 -9,50 -42,74 -66,116 -33,41 -67,132 -100,223 0,0 0,0 0,0 50,-17 100,0 124,41 100,190 -248,472 -421,372 -17,-8 -33,-16 -42,-33 -8,-16 -16,-33 -16,-49 -75,-199 124,-447 91,-554 -9,-42 0,-83 33,-108l173 -124c-140,0 -215,-41 -281,-174 -41,141 -107,273 -231,340 -17,8 -58,33 -66,49 -17,17 -33,99 -33,124 -25,83 -34,141 -25,207 58,-25 107,-75 149,-108 16,-16 41,-24 74,-16 25,0 50,16 66,33 25,41 33,83 25,132 -17,83 -91,124 -157,174 -91,74 -166,149 -298,149 -33,0 -66,-17 -82,-50 -9,8 -17,8 -17,17 -83,66 -207,124 -306,66 -17,-8 -25,-25 -33,-41 -33,-75 -25,-174 -8,-273 -42,49 -75,91 -108,132 -91,124 -91,124 -240,124 -24,0 -49,-17 -74,-33 -17,-17 -25,-41 -25,-75 8,-206 124,-430 265,-587 91,-91 198,-173 322,-215 83,-24 223,-41 257,75 8,8 8,25 8,41 0,0 0,0 0,0 0,0 0,0 0,0 16,-41 33,-91 58,-132 74,-166 215,-529 430,-529 49,8 91,49 91,99 0,33 0,66 -9,99l0 0zm-6623 1075c-50,74 -133,132 -215,165 -240,100 -430,-8 -447,-239 -25,33 -58,66 -91,99 -264,231 -653,273 -984,248 -173,-17 -430,-66 -455,-273 -16,-107 50,-215 125,-289 57,-58 132,-116 215,-133 24,-8 57,-8 82,17 25,16 33,41 33,66l9 74c0,33 -9,67 -34,83 -16,8 -82,75 -74,91 0,25 91,58 116,58 99,25 215,25 322,16 116,-16 356,-74 389,-215 -58,-33 -165,-41 -215,-49 -132,-25 -323,-41 -405,-166 -124,-181 82,-438 190,-578 91,-100 331,-348 447,-389 215,-74 330,99 297,298 -33,182 -107,256 -297,264 -42,0 -75,-25 -91,-58l-17 -49c-74,49 -141,140 -182,198 -8,17 -33,58 -25,75 17,24 149,41 182,49 133,17 414,50 505,141 24,33 41,58 49,91 25,-33 42,-75 66,-99 75,-108 215,-265 364,-240 42,8 83,25 108,58 16,16 25,24 33,49 25,149 -42,257 -133,372 -24,42 -66,75 -107,108 0,0 0,0 0,0 74,-25 149,-50 223,-8 9,8 17,8 25,16 25,-107 91,-223 66,-314 -8,-33 0,-58 25,-83 50,-66 157,-165 248,-182 41,-8 91,17 108,58 8,25 16,58 16,91 66,-74 141,-140 240,-149 50,-8 99,25 99,83 8,58 0,124 -16,190 74,-99 173,-190 314,-182 41,0 83,33 91,83 16,99 -17,240 -50,364 33,-9 75,0 99,25l25 24c116,-330 439,-711 753,-570 33,16 49,41 58,74 0,9 0,17 0,25 16,17 24,50 16,74 0,91 -49,199 -74,290 -8,25 -25,66 -33,116 8,-9 25,-9 33,-9 8,-57 25,-107 41,-148 17,-67 33,-124 50,-182 0,-9 8,-25 8,-42 -17,-33 -25,-66 -25,-107 0,-42 17,-75 58,-91 8,-8 50,-25 66,-33 0,-8 9,-25 9,-25 8,-33 24,-58 33,-83 57,-99 107,-190 239,-198 25,-8 58,0 83,25 17,24 25,58 17,91 -9,41 -75,140 -83,182 25,16 91,16 116,16 25,0 49,8 66,25 25,25 33,41 33,74l0 91c0,50 -33,83 -83,91 -49,9 -198,25 -256,42 -25,49 -50,157 -66,248 0,0 0,0 0,-9 58,-33 107,-74 173,-91 42,-16 91,9 108,42l33 58c25,41 8,91 -25,124 -132,99 -298,248 -471,248 -25,0 -50,-9 -66,-33 -9,-9 -25,-25 -25,-33 -25,16 -50,33 -66,49 -75,50 -182,99 -265,58 -25,-8 -33,-25 -50,-41 -33,-75 -33,-166 -16,-265 -58,75 -124,157 -190,215 -17,8 -33,17 -58,17l-91 8c-25,0 -50,-8 -75,-33 -16,-17 -24,-41 -24,-66 0,-17 0,-25 0,-33 -83,74 -215,149 -306,157 -42,0 -83,-25 -100,-58 -24,-58 -8,-165 9,-248 -17,16 -33,33 -42,41 -66,75 -165,182 -256,223 -33,17 -74,9 -107,-16l-58 -58c-17,-25 -25,-50 -25,-74 0,-25 0,-50 0,-67l-124 149c-33,33 -91,42 -133,17 -33,-25 -57,-58 -74,-99 0,-9 -8,-9 -8,-17l0 0zm4581 -1406c190,-8 496,-8 604,141 16,25 24,49 16,74 -41,190 -281,339 -438,430 -41,25 -157,91 -265,149 99,8 190,0 281,8 83,9 166,25 248,58 91,33 174,91 191,190 33,273 -546,497 -745,571 -198,66 -777,240 -926,8 -16,-16 -16,-49 -8,-74 41,-141 289,-381 438,-397l17 -99c-25,-17 -42,-33 -66,-75 -17,-33 -17,-66 0,-99 24,-50 58,-74 99,-107 8,-91 33,-191 58,-282 8,-49 25,-91 41,-132 -8,0 -16,0 -25,0 -107,17 -231,25 -322,-50 -25,-16 -33,-41 -33,-66 -9,-107 49,-173 116,-240 33,-24 66,-33 99,-24 82,24 215,58 306,41 49,-17 82,-41 124,-66 25,-17 58,-25 82,-25 42,-8 75,8 91,41l17 25 0 0zm-339 1381c74,-16 140,-33 190,-49 132,-33 265,-83 389,-149 25,-17 91,-50 132,-91 -66,-25 -190,-33 -231,-33 -91,0 -191,0 -290,16 -41,0 -74,9 -107,17l-42 8c-8,41 -16,108 -25,141 -8,41 -8,82 -16,132 0,0 0,0 0,8l0 0zm273 -1075c-33,75 -75,174 -108,257 141,-67 323,-174 422,-257 -91,-8 -223,0 -314,0z"/>
  </g>
  <g id="_2301579272368">
   <path class="fil2" d="M6457 817c17,-140 141,-396 199,-529 116,-8 480,-33 546,58 -25,108 -670,447 -745,471zm-330 -669c-50,49 -91,99 -91,165 107,83 306,8 430,0 -17,83 -66,182 -91,281 -25,99 -50,207 -58,306 -41,33 -83,58 -108,108 33,49 42,49 91,58l-66 463 99 -25c17,-33 50,-455 83,-414l83 -24c49,-9 74,-9 116,-17 165,-17 595,-50 661,116 -83,198 -876,471 -1215,397 16,-182 124,-66 132,-232 -116,8 -339,223 -364,323 190,289 1985,-389 1364,-629 -248,-99 -554,-16 -727,-91 99,-165 785,-380 843,-661 -91,-124 -438,-108 -579,-108l-49 -66c-124,17 -116,182 -554,50l0 0z"/>
   <path class="fil2" d="M1206 528c141,0 174,-50 207,-182 17,-124 -33,-240 -173,-190 -100,33 -331,273 -406,364 -587,711 240,488 463,670 25,521 -1438,463 -926,33l0 -75c-198,50 -537,455 91,505 926,74 1174,-463 1050,-604 -66,-66 -347,-99 -446,-116 -174,-25 -356,-41 -232,-264 67,-108 182,-248 315,-265l57 124 0 0z"/>
   <path class="fil2" d="M7648 1396c8,-190 141,-388 339,-397l-339 397zm720 42c-50,-133 -33,-207 -9,-339 42,-157 25,-174 149,-240 174,-91 223,-372 223,-554 -140,-9 -281,355 -330,471 -108,215 -157,397 -157,645l-166 99c-41,-157 50,-364 91,-512 41,-108 0,-75 -58,-108 149,-83 -116,-149 -372,132 -124,141 -231,348 -240,530 116,0 100,8 166,-83 58,-74 281,-347 339,-380 -9,132 -116,421 -66,537 91,50 248,-91 297,-174l58 125c99,0 166,-67 240,-125 74,-57 157,-99 107,-173 -74,66 -165,149 -272,149l0 0z"/>
   <path class="fil2" d="M2372 991c50,190 -181,422 -33,521l414 -463c-25,149 -116,306 -124,447l58 66c140,-75 405,-430 446,-455 33,-25 17,-17 33,-17 0,116 -91,422 -58,497 91,0 248,-108 298,-174l-25 -33 -149 66c9,-141 83,-397 67,-513 -224,-8 -323,372 -521,463 16,-173 157,-413 140,-554 -165,17 -306,348 -455,447 25,-124 141,-339 100,-447 -58,17 -157,100 -191,149l0 0z"/>
   <path class="fil2" d="M3671 1380c8,-190 132,-356 330,-381 -24,67 -272,356 -330,381zm-149 182l91 0c107,-91 281,-389 405,-455 -8,132 -116,422 -58,529 83,41 314,-107 281,-198 -66,-17 -66,99 -140,66 -66,-132 99,-438 107,-571l-74 -25 49 -49c-306,-141 -653,422 -661,703l0 0z"/>
   <path class="fil2" d="M4398 851c9,173 67,-34 -41,363 -33,108 -91,290 -8,373 140,0 306,-149 413,-224l-33 -58c-99,25 -173,149 -289,149 -42,-91 33,-380 91,-463 49,-33 231,-49 306,-58l0 -91c-389,0 -141,-231 -124,-322 -83,8 -124,82 -157,157 -67,124 -25,107 -158,174l0 0z"/>
   <path class="fil2" d="M1769 1297c-8,-132 58,-397 240,-347 16,107 -149,331 -240,347zm16 83c17,-50 157,-166 207,-223 66,-91 132,-174 108,-298 -158,-157 -455,314 -463,455 -42,438 446,239 496,82 -83,-49 -257,141 -348,-16l0 0z"/>
   <path class="fil2" d="M8988 1454c0,-116 91,-397 157,-496 58,-83 74,-58 16,-124l-206 149c49,157 -174,422 -83,579 99,49 347,-141 290,-240 -75,25 -75,124 -174,132l0 0z"/>
   <path class="fil2" d="M8847 503c75,166 124,190 306,182l25 -91c-116,-66 -132,-25 -182,-198l-149 107 0 0z"/>
  </g>
  <g id="_2250418134448">
   <path class="fil3" d="M1992 2182c-49,-50 -115,-75 -181,-75 -149,0 -265,116 -265,265 0,41 16,91 33,124l-33 141 140 -42c34,25 83,33 125,33l0 0c140,0 264,-115 264,-256 0,-74 -33,-140 -83,-190l0 0zm-181 405c-42,0 -75,-8 -116,-33l0 0 -83 17 17 -75 0 -8c-25,-41 -33,-75 -33,-116 0,-124 90,-223 215,-223 57,0 107,25 148,66 42,41 67,99 67,157 0,116 -100,215 -215,215l0 0zm115 -165c-8,0 -33,-17 -41,-17 -8,-8 -8,-8 -17,0 0,8 -16,25 -16,25 -8,8 -8,8 -17,0 -41,-17 -66,-33 -91,-74 -8,-9 9,-9 17,-34 8,-8 8,-8 0,-16 0,0 -8,-33 -17,-50 -8,-8 -8,-8 -16,-8 0,0 -8,0 -8,0 -9,0 -17,0 -17,8 -8,9 -25,25 -25,58 0,25 25,58 25,66 0,0 50,67 116,100 41,16 49,16 74,16 17,-8 42,-16 42,-33 8,-16 8,-33 8,-33 0,0 -8,0 -17,-8l0 0z"/>
   <path class="fil3" d="M2478 2147c32,0 58,7 81,23 23,15 40,39 52,70 13,32 19,75 19,131 0,57 -6,101 -19,133 -12,32 -29,55 -50,70 -21,14 -48,22 -80,22 -32,0 -59,-8 -81,-22 -22,-15 -39,-38 -52,-68 -12,-31 -18,-74 -18,-130 0,-79 12,-136 36,-171 27,-39 64,-58 112,-58zm3 77c-14,0 -26,5 -37,13 -10,9 -18,24 -24,46 -5,21 -8,53 -8,94 0,54 6,91 19,112 13,20 29,31 50,31 20,0 35,-10 47,-30 14,-23 21,-63 21,-118 0,-56 -7,-95 -19,-116 -13,-21 -29,-32 -49,-32zm552 130c19,12 34,28 45,47 10,20 16,41 16,64 0,24 -6,47 -19,68 -12,21 -29,37 -49,47 -21,11 -48,16 -80,16 -34,0 -62,-5 -82,-15 -21,-10 -37,-26 -49,-47 -12,-20 -19,-43 -19,-69 0,-23 5,-43 15,-62 10,-18 25,-35 44,-49 -12,-13 -22,-27 -29,-42 -6,-15 -9,-30 -9,-46 0,-23 5,-43 16,-61 11,-18 26,-33 45,-43 20,-10 42,-15 67,-15 25,0 47,5 66,15 19,11 34,25 45,44 11,19 17,39 17,61 0,15 -3,29 -9,42 -5,14 -16,28 -31,45zm-91 -129c-13,0 -24,5 -33,14 -8,8 -12,20 -12,33 0,14 4,26 13,35 9,9 20,14 34,14 13,0 25,-5 33,-14 9,-9 14,-21 14,-35 0,-14 -5,-25 -14,-34 -9,-8 -20,-13 -35,-13zm4 172c-20,0 -36,6 -50,18 -13,12 -20,26 -20,42 0,18 7,32 19,44 13,12 29,18 50,18 21,0 37,-5 50,-17 12,-11 18,-25 18,-43 0,-17 -6,-32 -19,-44 -13,-12 -29,-18 -48,-18zm396 -239l122 0 0 427 -81 0 0 -351 -88 0 47 -76zm472 138l-80 0c3,-46 17,-83 44,-109 27,-27 61,-40 103,-40 26,0 49,5 69,16 20,11 36,27 48,48 12,20 18,41 18,63 0,25 -8,52 -22,82 -15,29 -41,64 -80,104l-47 50 152 0 0 75 -297 0 0 -39 133 -135c32,-32 53,-58 64,-78 10,-19 16,-37 16,-53 0,-16 -6,-30 -17,-41 -11,-11 -25,-16 -42,-16 -18,0 -32,7 -44,20 -11,13 -18,30 -18,53zm475 -33l-78 0c4,-32 15,-57 34,-76 26,-27 58,-40 98,-40 35,0 64,11 88,33 24,23 35,49 35,80 0,19 -5,36 -15,52 -11,16 -26,28 -46,38 26,8 47,21 61,41 15,19 22,42 22,68 0,38 -14,70 -42,97 -28,27 -64,40 -108,40 -42,0 -75,-13 -101,-38 -27,-25 -41,-59 -43,-102l80 0c3,22 11,39 23,49 12,11 27,16 45,16 19,0 35,-6 47,-18 13,-12 19,-27 19,-45 0,-19 -8,-35 -25,-49 -17,-13 -41,-20 -73,-20l0 -70c20,-2 34,-5 44,-9 9,-5 17,-11 22,-19 5,-8 8,-16 8,-26 0,-11 -4,-21 -12,-29 -8,-7 -19,-11 -32,-11 -12,0 -22,3 -32,10 -9,8 -16,17 -19,28zm607 91c19,12 34,28 45,47 10,20 15,41 15,64 0,24 -6,47 -18,68 -12,21 -29,37 -50,47 -20,11 -47,16 -79,16 -35,0 -62,-5 -83,-15 -20,-10 -36,-26 -48,-47 -13,-20 -19,-43 -19,-69 0,-23 5,-43 15,-62 10,-18 25,-35 44,-49 -13,-13 -22,-27 -29,-42 -6,-15 -10,-30 -10,-46 0,-23 6,-43 17,-61 10,-18 25,-33 45,-43 19,-10 42,-15 67,-15 25,0 47,5 66,15 19,11 34,25 45,44 11,19 17,39 17,61 0,15 -3,29 -9,42 -6,14 -16,28 -31,45zm-91 -129c-13,0 -24,5 -33,14 -8,8 -13,20 -13,33 0,14 5,26 14,35 9,9 20,14 34,14 13,0 24,-5 33,-14 9,-9 13,-21 13,-35 0,-14 -4,-25 -13,-34 -9,-8 -20,-13 -35,-13zm4 172c-20,0 -36,6 -50,18 -13,12 -20,26 -20,42 0,18 6,32 19,44 13,12 29,18 50,18 21,0 37,-5 50,-17 12,-11 18,-25 18,-43 0,-17 -6,-32 -19,-44 -13,-12 -29,-18 -48,-18zm397 -239l201 0 0 75 -140 0 -17 78c5,-1 9,-2 14,-3 5,-1 9,-1 13,-1 39,0 71,13 97,40 26,26 39,60 39,101 0,42 -15,77 -43,105 -28,29 -63,43 -104,43 -36,0 -68,-11 -94,-31 -26,-21 -43,-50 -51,-86l86 0c6,13 15,24 26,30 10,7 22,11 35,11 18,0 33,-7 46,-20 13,-13 19,-29 19,-49 0,-20 -6,-36 -18,-49 -12,-12 -26,-19 -42,-19 -9,0 -18,2 -27,7 -8,4 -17,11 -25,20l-66 -15 51 -237zm539 -11l69 34 -74 146c36,0 67,13 92,39 26,26 39,58 39,97 0,37 -13,68 -40,94 -26,26 -57,39 -94,39 -39,0 -71,-13 -97,-40 -25,-27 -38,-58 -38,-93 0,-13 2,-26 6,-39 4,-14 13,-34 27,-62l110 -215zm-10 257c-15,0 -28,5 -38,16 -10,11 -15,25 -15,41 0,17 5,31 16,42 11,11 23,17 38,17 15,0 28,-6 38,-17 11,-11 17,-25 17,-42 0,-16 -6,-30 -16,-41 -11,-11 -24,-16 -40,-16zm464 192l-69 -34 74 -146c-36,0 -67,-13 -92,-39 -25,-26 -38,-58 -38,-97 0,-37 13,-69 39,-94 26,-26 58,-39 95,-39 38,0 71,13 96,40 26,27 39,58 39,93 0,13 -2,26 -6,39 -4,13 -13,34 -28,62l-110 215zm10 -257c16,0 28,-5 39,-16 10,-11 15,-25 15,-41 0,-17 -5,-31 -16,-42 -11,-11 -23,-17 -38,-17 -15,0 -28,6 -39,17 -11,11 -16,25 -16,41 0,17 5,31 16,42 10,11 24,16 39,16zm550 15c19,12 34,28 44,47 11,20 16,41 16,64 0,24 -6,47 -18,68 -13,21 -29,37 -50,47 -21,11 -47,16 -79,16 -35,0 -62,-5 -83,-15 -20,-10 -36,-26 -49,-47 -12,-20 -18,-43 -18,-69 0,-23 5,-43 15,-62 9,-18 24,-35 44,-49 -13,-13 -23,-27 -29,-42 -7,-15 -10,-30 -10,-46 0,-23 6,-43 16,-61 11,-18 26,-33 46,-43 19,-10 41,-15 67,-15 25,0 47,5 66,15 19,11 34,25 45,44 11,19 16,39 16,61 0,15 -3,29 -8,42 -6,14 -16,28 -31,45zm-91 -129c-14,0 -25,5 -33,14 -9,8 -13,20 -13,33 0,14 5,26 14,35 9,9 20,14 33,14 14,0 25,-5 34,-14 9,-9 13,-21 13,-35 0,-14 -4,-25 -13,-34 -9,-8 -21,-13 -35,-13zm3 172c-19,0 -36,6 -49,18 -13,12 -20,26 -20,42 0,18 6,32 19,44 12,12 29,18 50,18 20,0 37,-5 49,-17 13,-11 19,-25 19,-43 0,-17 -7,-32 -20,-44 -12,-12 -28,-18 -48,-18zm471 -250l69 34 -74 146c36,0 67,13 92,39 26,26 39,58 39,97 0,37 -13,68 -40,94 -26,26 -57,39 -94,39 -39,0 -71,-13 -97,-40 -25,-27 -38,-58 -38,-93 0,-13 2,-26 6,-39 4,-14 13,-34 27,-62l110 -215zm-10 257c-15,0 -28,5 -38,16 -10,11 -15,25 -15,41 0,17 5,31 16,42 11,11 23,17 38,17 15,0 28,-6 38,-17 11,-11 17,-25 17,-42 0,-16 -6,-30 -16,-41 -11,-11 -24,-16 -40,-16zm339 -246l281 0 0 42 -193 396 -69 -33 161 -329 -180 0 0 -76z"/>
  </g>
 </g>
</svg>
